<svg width="32" height="32" viewBox="0 0 32 32" fill="none" xmlns="http://www.w3.org/2000/svg">
<path d="M0 16C0 7.16344 7.16344 0 16 0C24.8366 0 32 7.16344 32 16C32 24.8366 24.8366 32 16 32C7.16344 32 0 24.8366 0 16Z" fill="#F5F5F5"/>
<path d="M8.5 16C8.5 17.4834 8.93987 18.9334 9.76398 20.1668C10.5881 21.4001 11.7594 22.3614 13.1299 22.9291C14.5003 23.4968 16.0083 23.6453 17.4632 23.3559C18.918 23.0665 20.2544 22.3522 21.3033 21.3033C22.3522 20.2544 23.0665 18.918 23.3559 17.4632C23.6453 16.0083 23.4968 14.5003 22.9291 13.1299C22.3614 11.7594 21.4001 10.5881 20.1668 9.76398C18.9334 8.93987 17.4834 8.5 16 8.5C13.9033 8.50789 11.8908 9.32602 10.3833 10.7833L8.5 12.6667M12.6667 12.6667H8.5V8.5M16 11.8333V16L19.3333 17.6667" stroke="#0B0B0B" stroke-width="1.5" stroke-linecap="round" stroke-linejoin="round"/>
</svg>
