<svg width="40" height="31" viewBox="0 0 40 31" fill="none" xmlns="http://www.w3.org/2000/svg">
<path d="M39.9262 28.547L10.3524 30.783L0.0264364 25.1366L0 2.30207L25.7784 0.016449L39.8167 5.30237L39.9262 28.547Z" fill="#DAAE87"/>
<path d="M25.7578 0L39.944 5.28664L10.3538 7.42928L0.00784168 2.3017L25.7578 0Z" fill="#E8BD97"/>
<path d="M10.3591 7.43019V30.7898L0.00195312 25.1443V2.27928L10.3591 7.43019Z" fill="#C49972"/>
<path d="M1.43555 20.1791V24.4814L6.15918 27.0252V22.5327L1.43555 20.1791Z" fill="#DAAE87"/>
<path d="M10.543 1.36003L22.3693 6.57646L28.9073 6.17061L15.8668 0.888031L10.543 1.36003Z" fill="#F5D0B0"/>
<path d="M27.2647 14.6245C27.2183 14.1916 27.0225 13.8628 26.6774 13.6379C26.3356 13.4129 25.8909 13.3145 25.3434 13.3426C24.9585 13.3624 24.6283 13.4375 24.3529 13.5679C24.0775 13.6984 23.8668 13.867 23.7208 14.0739C23.5748 14.2807 23.5001 14.5122 23.4968 14.7682C23.4968 14.9808 23.5449 15.1628 23.6412 15.314C23.7407 15.465 23.8751 15.591 24.0443 15.692C24.2136 15.7896 24.401 15.8697 24.6068 15.9322C24.8125 15.9948 25.0199 16.0456 25.2289 16.0847L26.1846 16.2748C26.5695 16.3448 26.9395 16.4471 27.2946 16.5817C27.6529 16.7161 27.9732 16.8924 28.2552 17.1105C28.5406 17.3284 28.7662 17.5976 28.9321 17.918C29.0981 18.2384 29.181 18.6196 29.181 19.0615C29.181 19.6596 29.0284 20.1941 28.7231 20.6649C28.4178 21.1325 27.9765 21.509 27.3991 21.7945C26.825 22.0765 26.1299 22.2385 25.3136 22.2804C24.5205 22.3211 23.832 22.2336 23.2479 22.0177C22.6672 21.8016 22.2126 21.4661 21.8841 21.0112C21.5589 20.5561 21.3831 19.9903 21.3565 19.3138L23.1733 19.2205C23.1998 19.5747 23.3093 19.8648 23.5018 20.0908C23.6942 20.3168 23.9448 20.48 24.2534 20.5805C24.5653 20.6808 24.9137 20.721 25.2986 20.7013C25.7001 20.6806 26.0519 20.6028 26.3538 20.4676C26.6591 20.329 26.898 20.1473 27.0706 19.9225C27.2431 19.6943 27.3311 19.4339 27.3344 19.1414C27.3311 18.8757 27.2531 18.6605 27.1005 18.4955C26.9478 18.3273 26.7338 18.1921 26.4584 18.0899C26.1863 17.9843 25.8677 17.8943 25.5027 17.82L24.343 17.5805C23.5034 17.4077 22.8398 17.1145 22.352 16.7009C21.8675 16.2839 21.6253 15.7099 21.6253 14.9789C21.6253 14.3775 21.7879 13.8425 22.1131 13.3739C22.4416 12.9052 22.8879 12.5317 23.452 12.2536C24.0161 11.9721 24.6549 11.813 25.3683 11.7764C26.0917 11.7392 26.7255 11.8329 27.2697 12.0575C27.8172 12.2786 28.2469 12.6037 28.5588 13.033C28.8707 13.4589 29.0317 13.959 29.0416 14.5333L27.2647 14.6245Z" fill="#5F4F40"/>
<path d="M12.6582 26.2675V28.3437L38.6793 26.2676V24.2725L12.6582 26.2675Z" fill="#5F4F40"/>
</svg>
