<svg width="48" height="44" viewBox="0 0 48 44" fill="none" xmlns="http://www.w3.org/2000/svg">
<path d="M47.9794 40.1468L12.4405 43.2914L0 34.4326V3.23753L30.978 0.0231628L47.8478 7.45697L47.9794 40.1468Z" fill="#DAAE87"/>
<path d="M30.9516 0L47.9992 7.43481L12.4406 10.4481L0.00784757 3.23697L30.9516 0Z" fill="#E8BD97"/>
<path d="M12.4482 10.4494V43.301L0.00195312 34.4325V3.2055L12.4482 10.4494Z" fill="#C49972"/>
<path d="M1.72656 28.3786V34.134L7.40296 38.0065V31.6885L1.72656 28.3786Z" fill="#DAAE87"/>
<path d="M12.668 1.91264L26.8797 9.24873L34.7364 8.67796L19.0656 1.24886L12.668 1.91264Z" fill="#F5D0B0"/>
<path d="M22.8452 17.6413L25.5428 21.9947L25.6385 21.9898L28.3481 17.3587L30.8782 17.2288L27.104 23.5556L30.938 29.4917L28.366 29.6238L25.6385 25.3019L25.5428 25.3068L22.8153 29.9088L20.2553 30.0403L24.1253 23.7086L20.3032 17.7719L22.8452 17.6413ZM32.6203 29.4053V17.1393L34.8394 17.0254V27.4287L40.2345 27.1516V29.0143L32.6203 29.4053Z" fill="#5F4F40"/>
<path d="M15.2109 37.8664V40.3614L46.4805 37.6135V35.2159L15.2109 37.8664Z" fill="#5F4F40"/>
</svg>
