<svg width="34" height="27" viewBox="0 0 34 27" fill="none" xmlns="http://www.w3.org/2000/svg">
<path d="M33.9298 24.2597L8.79762 26.1599L0.022466 21.3615L0 1.95645L21.9068 0.0140991L33.8367 4.50614L33.9298 24.2597Z" fill="#DAAE87"/>
<path d="M21.8885 3.05176e-05L33.9441 4.49268L8.798 6.31352L0.00588418 1.95604L21.8885 3.05176e-05Z" fill="#E8BD97"/>
<path d="M8.80363 6.3142V26.1655L0.00195312 21.3679V1.93689L8.80363 6.3142Z" fill="#C49972"/>
<path d="M1.2207 17.1486V20.8047L5.2349 22.9664V19.1487L1.2207 17.1486Z" fill="#DAAE87"/>
<path d="M8.95898 1.15581L19.0092 5.5888L24.5652 5.2439L13.4832 0.7547L8.95898 1.15581Z" fill="#F5D0B0"/>
<path d="M15.5387 10.5381L17.4464 13.6167L17.5141 13.6133L19.4302 10.3383L21.2194 10.2464L18.5504 14.7205L21.2617 18.9184L19.4429 19.0118L17.5141 15.9555L17.4464 15.9589L15.5176 19.2134L13.7072 19.3064L16.4439 14.8287L13.741 10.6305L15.5387 10.5381ZM27.1592 12.3259C27.1197 11.958 26.9534 11.6786 26.6601 11.4875C26.3696 11.2963 25.9918 11.2126 25.5265 11.2365C25.1994 11.2533 24.9188 11.3172 24.6847 11.428C24.4507 11.5389 24.2716 11.6822 24.1476 11.858C24.0235 12.0338 23.96 12.2304 23.9572 12.448C23.9572 12.6287 23.9981 12.7833 24.0799 12.9118C24.1645 13.0402 24.2787 13.1473 24.4225 13.2331C24.5663 13.316 24.7256 13.3841 24.9005 13.4372C25.0753 13.4904 25.2516 13.5336 25.4292 13.5668L26.2413 13.7284C26.5684 13.7878 26.8829 13.8747 27.1846 13.9891C27.4891 14.1034 27.7613 14.2532 28.001 14.4385C28.2435 14.6237 28.4352 14.8525 28.5762 15.1248C28.7172 15.3971 28.7877 15.721 28.7877 16.0965C28.7877 16.6048 28.658 17.059 28.3986 17.4591C28.1391 17.8565 27.7641 18.1765 27.2734 18.4191C26.7856 18.6587 26.1948 18.7964 25.5011 18.832C24.8272 18.8666 24.242 18.7922 23.7457 18.6087C23.2522 18.4251 22.8659 18.14 22.5867 17.7534C22.3104 17.3666 22.1609 16.8858 22.1384 16.3109L23.6823 16.2316C23.7048 16.5326 23.7979 16.7791 23.9614 16.9712C24.125 17.1633 24.3379 17.302 24.6002 17.3874C24.8652 17.4726 25.1613 17.5068 25.4884 17.49C25.8296 17.4725 26.1285 17.4063 26.3852 17.2915C26.6446 17.1737 26.8476 17.0192 26.9943 16.8282C27.1409 16.6343 27.2156 16.413 27.2184 16.1644C27.2156 15.9387 27.1493 15.7557 27.0196 15.6155C26.8899 15.4725 26.708 15.3576 26.474 15.2708C26.2427 15.1811 25.972 15.1046 25.6618 15.0415L24.6763 14.838C23.9629 14.6911 23.3989 14.4419 22.9843 14.0905C22.5726 13.7361 22.3668 13.2483 22.3668 12.6271C22.3668 12.116 22.505 11.6614 22.7813 11.2632C23.0605 10.8648 23.4398 10.5474 23.9191 10.3111C24.3985 10.0718 24.9414 9.93667 25.5476 9.90553C26.1624 9.87396 26.701 9.9536 27.1634 10.1444C27.6287 10.3323 27.9939 10.6086 28.259 10.9734C28.5241 11.3353 28.6608 11.7603 28.6693 12.2484L27.1592 12.3259Z" fill="#5F4F40"/>
<path d="M10.7559 22.3224V24.0868L32.8689 22.3226V20.6271L10.7559 22.3224Z" fill="#5F4F40"/>
</svg>
