<svg width="48" height="44" viewBox="0 0 48 44" fill="none" xmlns="http://www.w3.org/2000/svg">
<path d="M47.9794 40.1468L12.4405 43.2914L0 34.4326V3.23752L30.978 0.023159L47.8478 7.45697L47.9794 40.1468Z" fill="#DAAE87"/>
<path d="M30.9516 0L47.9992 7.43481L12.4406 10.4481L0.00784757 3.23697L30.9516 0Z" fill="#E8BD97"/>
<path d="M12.4482 10.4494V43.301L0.00195312 34.4325V3.20549L12.4482 10.4494Z" fill="#C49972"/>
<path d="M1.72656 28.3786V34.134L7.40296 38.0065V31.6885L1.72656 28.3786Z" fill="#DAAE87"/>
<path d="M12.668 1.91264L26.8797 9.24873L34.7364 8.67796L19.0656 1.24886L12.668 1.91264Z" fill="#F5D0B0"/>
<path d="M26.8056 29.7039V17.4379L29.0247 17.324V27.7273L34.4199 27.4502V29.3129L26.8056 29.7039Z" fill="#5F4F40"/>
<path d="M15.2109 37.8664V40.3614L46.4805 37.6135V35.2159L15.2109 37.8664Z" fill="#5F4F40"/>
</svg>
