<svg width="48" height="37" viewBox="0 0 48 37" fill="none" xmlns="http://www.w3.org/2000/svg">
<path d="M47.9794 34.3049L12.4405 36.992L0.0317687 30.2067L0 2.7664L30.978 0.0197601L47.8478 6.37186L47.9794 34.3049Z" fill="#DAAE87"/>
<path d="M30.9516 0L47.9992 6.35296L12.4406 8.92778L0.00784757 2.76595L30.9516 0Z" fill="#E8BD97"/>
<path d="M12.4482 8.92878V37.0001L0.00195312 30.2158V2.73893L12.4482 8.92878Z" fill="#C49972"/>
<path d="M1.72656 24.2493V29.4193L7.40296 32.4762V27.0776L1.72656 24.2493Z" fill="#DAAE87"/>
<path d="M12.6699 1.63434L26.8817 7.90294L34.7384 7.41522L19.0676 1.06714L12.6699 1.63434Z" fill="#F5D0B0"/>
<path d="M23.9436 14.8315L26.6591 14.6921L30.2958 23.3933L30.4393 23.3859L34.076 14.3112L36.7915 14.1717V26.4377L34.6622 26.547V18.1202L34.5485 18.126L31.1631 26.6908L29.572 26.7725L26.1866 18.5375L26.0729 18.5433V26.9881L23.9436 27.0975V14.8315Z" fill="#5F4F40"/>
<path d="M15.2109 31.5656V34.0606L46.4805 31.5659V29.1683L15.2109 31.5656Z" fill="#5F4F40"/>
</svg>
