<svg width="20" height="20" viewBox="0 0 20 20" fill="none" xmlns="http://www.w3.org/2000/svg">
<g clip-path="url(#clip0_40001354_2087)">
<g clip-path="url(#clip1_40001354_2087)">
<path d="M7.57495 7.50003C7.77087 6.94308 8.15758 6.47345 8.66658 6.1743C9.17558 5.87516 9.77403 5.76581 10.3559 5.86562C10.9378 5.96543 11.4656 6.26796 11.8458 6.71963C12.2261 7.1713 12.4342 7.74296 12.4333 8.33336C12.4333 10 9.93328 10.8334 9.93328 10.8334M10.0001 14.1666H10.0084M18.3334 9.99996C18.3334 14.6023 14.6025 18.3333 10.0001 18.3333C5.39771 18.3333 1.66675 14.6023 1.66675 9.99996C1.66675 5.39759 5.39771 1.66663 10.0001 1.66663C14.6025 1.66663 18.3334 5.39759 18.3334 9.99996Z" stroke="#B7B7B7" stroke-width="2" stroke-linecap="round" stroke-linejoin="round"/>
</g>
</g>
<defs>
<clipPath id="clip0_40001354_2087">
<rect width="20" height="20" fill="white"/>
</clipPath>
<clipPath id="clip1_40001354_2087">
<rect width="20" height="20" fill="white"/>
</clipPath>
</defs>
</svg>
