<svg width="32" height="32" viewBox="0 0 32 32" fill="none" xmlns="http://www.w3.org/2000/svg">
<path d="M0 16C0 7.16344 7.16344 0 16 0C24.8366 0 32 7.16344 32 16C32 24.8366 24.8366 32 16 32C7.16344 32 0 24.8366 0 16Z" fill="#F5F5F5"/>
<path d="M21.8337 23.5V21.8333C21.8337 20.9493 21.4825 20.1014 20.8573 19.4763C20.2322 18.8512 19.3844 18.5 18.5003 18.5H13.5003C12.6163 18.5 11.7684 18.8512 11.1433 19.4763C10.5182 20.1014 10.167 20.9493 10.167 21.8333V23.5M19.3337 11.8333C19.3337 13.6743 17.8413 15.1667 16.0003 15.1667C14.1594 15.1667 12.667 13.6743 12.667 11.8333C12.667 9.99238 14.1594 8.5 16.0003 8.5C17.8413 8.5 19.3337 9.99238 19.3337 11.8333Z" stroke="#0B0B0B" stroke-width="1.5" stroke-linecap="round" stroke-linejoin="round"/>
</svg>
